<svg width="156" height="157" viewBox="0 0 156 157" fill="none" xmlns="http://www.w3.org/2000/svg">
<path d="M78.1602 78.9082C78.405 79.4317 78.7553 80.205 79.1758 81.2012C80.0169 83.1938 81.1394 86.0791 82.2617 89.6445C84.5067 96.7767 86.75 106.625 86.75 117.5C86.75 128.375 84.5067 138.223 82.2617 145.355C81.1394 148.921 80.0169 151.806 79.1758 153.799C78.7553 154.795 78.405 155.568 78.1602 156.092C78.1008 156.219 78.0465 156.331 78 156.428C77.9535 156.331 77.8992 156.219 77.8398 156.092C77.595 155.568 77.2447 154.795 76.8242 153.799C75.9831 151.806 74.8606 148.921 73.7383 145.355C71.4933 138.223 69.25 128.375 69.25 117.5C69.25 106.625 71.4933 96.7767 73.7383 89.6445C74.8606 86.0791 75.9831 83.1938 76.8242 81.2012C77.2447 80.205 77.595 79.4317 77.8398 78.9082C77.8994 78.7809 77.9534 78.6687 78 78.5713C78.0466 78.6687 78.1006 78.7809 78.1602 78.9082Z" fill="#F5F4F0" stroke="#C0CDBD" stroke-width="0.5"/>
<path d="M78.1602 0.908203C78.405 1.43167 78.7553 2.20498 79.1758 3.20117C80.0169 5.19383 81.1394 8.07906 82.2617 11.6445C84.5067 18.7767 86.75 28.6255 86.75 39.5C86.75 50.3745 84.5067 60.2233 82.2617 67.3555C81.1394 70.9209 80.0169 73.8062 79.1758 75.7988C78.7553 76.795 78.405 77.5683 78.1602 78.0918C78.1008 78.2188 78.0465 78.3305 78 78.4277C77.9535 78.3305 77.8992 78.2188 77.8398 78.0918C77.595 77.5683 77.2447 76.795 76.8242 75.7988C75.9831 73.8062 74.8606 70.9209 73.7383 67.3555C71.4933 60.2233 69.25 50.3745 69.25 39.5C69.25 28.6255 71.4933 18.7767 73.7383 11.6445C74.8606 8.07906 75.9831 5.19383 76.8242 3.20117C77.2447 2.20498 77.595 1.43167 77.8398 0.908203C77.8994 0.780883 77.9534 0.668685 78 0.571289C78.0466 0.668685 78.1006 0.780883 78.1602 0.908203Z" fill="#F5F4F0" stroke="#C0CDBD" stroke-width="0.5"/>
<path d="M77.9082 78.8398C78.4317 78.595 79.205 78.2447 80.2012 77.8242C82.1938 76.9831 85.0791 75.8606 88.6445 74.7383C95.7767 72.4933 105.625 70.25 116.5 70.25C127.375 70.25 137.223 72.4933 144.355 74.7383C147.921 75.8606 150.806 76.9831 152.799 77.8242C153.795 78.2447 154.568 78.595 155.092 78.8398C155.219 78.8992 155.331 78.9535 155.428 79C155.331 79.0465 155.219 79.1008 155.092 79.1602C154.568 79.405 153.795 79.7553 152.799 80.1758C150.806 81.0169 147.921 82.1394 144.355 83.2617C137.223 85.5067 127.375 87.75 116.5 87.75C105.625 87.75 95.7767 85.5067 88.6445 83.2617C85.0791 82.1394 82.1938 81.0169 80.2012 80.1758C79.205 79.7553 78.4317 79.405 77.9082 79.1602C77.7809 79.1006 77.6687 79.0466 77.5713 79C77.6687 78.9534 77.7809 78.8994 77.9082 78.8398Z" fill="#F5F4F0" stroke="#C0CDBD" stroke-width="0.5"/>
<path d="M0.908203 78.8398C1.43167 78.595 2.20498 78.2447 3.20117 77.8242C5.19383 76.9831 8.07906 75.8606 11.6445 74.7383C18.7767 72.4933 28.6255 70.25 39.5 70.25C50.3745 70.25 60.2233 72.4933 67.3555 74.7383C70.9209 75.8606 73.8062 76.9831 75.7988 77.8242C76.795 78.2447 77.5683 78.595 78.0918 78.8398C78.2188 78.8992 78.3305 78.9535 78.4277 79C78.3305 79.0465 78.2188 79.1008 78.0918 79.1602C77.5683 79.405 76.795 79.7553 75.7988 80.1758C73.8062 81.0169 70.9209 82.1394 67.3555 83.2617C60.2233 85.5067 50.3745 87.75 39.5 87.75C28.6255 87.75 18.7767 85.5067 11.6445 83.2617C8.07906 82.1394 5.19383 81.0169 3.20117 80.1758C2.20498 79.7553 1.43167 79.405 0.908203 79.1602C0.780883 79.1006 0.668685 79.0466 0.571289 79C0.668685 78.9534 0.780883 78.8994 0.908203 78.8398Z" fill="#F5F4F0" stroke="#C0CDBD" stroke-width="0.5"/>
<circle cx="78" cy="78" r="4" fill="#C0CDBD"/>
</svg>
