<svg width="14" height="14" viewBox="0 0 14 14" fill="none" xmlns="http://www.w3.org/2000/svg">
<path fill-rule="evenodd" clip-rule="evenodd" d="M4.22925 5.83333C4.22925 5.09846 4.52117 4.39369 5.04081 3.87406C5.56044 3.35443 6.26521 3.0625 7.00008 3.0625C7.73495 3.0625 8.43972 3.35443 8.95936 3.87406C9.47899 4.39369 9.77091 5.09846 9.77091 5.83333C9.77091 6.5682 9.47899 7.27298 8.95936 7.79261C8.43972 8.31224 7.73495 8.60417 7.00008 8.60417C6.26521 8.60417 5.56044 8.31224 5.04081 7.79261C4.52117 7.27298 4.22925 6.5682 4.22925 5.83333ZM7.00008 3.9375C6.49728 3.9375 6.01506 4.13724 5.65952 4.49278C5.30399 4.84831 5.10425 5.33053 5.10425 5.83333C5.10425 6.33614 5.30399 6.81835 5.65952 7.17389C6.01506 7.52943 6.49728 7.72917 7.00008 7.72917C7.50289 7.72917 7.9851 7.52943 8.34064 7.17389C8.69618 6.81835 8.89591 6.33614 8.89591 5.83333C8.89591 5.33053 8.69618 4.84831 8.34064 4.49278C7.9851 4.13724 7.50289 3.9375 7.00008 3.9375Z" fill="black"/>
<path fill-rule="evenodd" clip-rule="evenodd" d="M2.05578 5.16691C2.15574 3.95764 2.70667 2.83015 3.59922 2.00816C4.49177 1.18617 5.66072 0.729758 6.87411 0.729492H7.12611C8.3395 0.729758 9.50845 1.18617 10.401 2.00816C11.2936 2.83015 11.8445 3.95764 11.9444 5.16691C12.0556 6.51402 11.6395 7.85168 10.7836 8.89791L7.98769 12.3168C7.86804 12.4631 7.71737 12.581 7.54657 12.662C7.37578 12.743 7.18912 12.785 7.00011 12.785C6.81109 12.785 6.62444 12.743 6.45365 12.662C6.28285 12.581 6.13218 12.4631 6.01253 12.3168L3.21661 8.89791C2.36076 7.85168 1.94457 6.51402 2.05578 5.16691ZM6.87411 1.60449C5.88047 1.60491 4.92328 1.97879 4.19241 2.65195C3.46155 3.32512 3.01039 4.2484 2.92844 5.23866C2.83586 6.35976 3.18219 7.47302 3.89444 8.34374L6.69036 11.7632C6.72794 11.8092 6.77529 11.8463 6.82896 11.8718C6.88263 11.8972 6.94129 11.9104 7.00069 11.9104C7.0601 11.9104 7.11876 11.8972 7.17243 11.8718C7.2261 11.8463 7.27344 11.8092 7.31103 11.7632L10.1069 8.34374C10.8188 7.47285 11.1647 6.35961 11.0718 5.23866C10.9898 4.2483 10.5386 3.32494 9.80759 2.65176C9.0766 1.97857 8.11927 1.60477 7.12553 1.60449H6.87411Z" fill="black"/>
</svg>
